# xmcd
#
# Track frame offsets: 
#        150
#        22309
#        40157
#        61248
#        76728
#        86939
#        98216
#        125980
#        146266
#        163640
#        184018
#        194827
#        207038
#        226502
#        243199
#        254751
#        283699
#
# Disc length: 4292 seconds
#
# Revision: 0
# Processed by: cddbd v1.5.1PL0 Copyright (c) Steve Scherf et al.
# Submitted via: ExactAudioCopy v0.95a5
#
DISCID=f210c211
DTITLE=Various Artist - Hecho En Cuba 3
DYEAR=2004
DGENRE=Latin
TTITLE0=Eliades Ochoa - Estoy Hecho Tierra
TTITLE1=Ibrahim Ferrer - Estoy Seco Y Me Quiero Majar
TTITLE2=Afro Cuban All Stars -  Baila Mi Son
TTITLE3=Compay Segundo - Lupina
TTITLE4=Omara Portuondo Y Raquel Zozya - La Cumbancha
TTITLE5=Ruben Gonzalez - Nuestra Concion
TTITLE6=Eliades Ochoa - Caminito De Zaza
TTITLE7=Ibrahim Ferrer - Compositor Confundido
TTITLE8=Habana All Stars - Baile Del Suavito
TTITLE9=Celia Cruz - El Son Sigue Ahi
TTITLE10=Manuel Licea Puntillita - A Todo Cuba Le Gusta
TTITLE11=Ruben Gonzalez - Prestame La Bicicletta
TTITLE12=Eliades Ochoa - Rita La Caimana
TTITLE13=Ibrahim Ferrer - Ahora No Puedo
TTITLE14=Compay Segundo - Oui Parle Francais
TTITLE15=Raul Paz - Mulata (Acoustic Version)
TTITLE16=Data
EXTD=
EXTT0=
EXTT1=
EXTT2=
EXTT3=
EXTT4=
EXTT5=
EXTT6=
EXTT7=
EXTT8=
EXTT9=
EXTT10=
EXTT11=
EXTT12=
EXTT13=
EXTT14=
EXTT15=
EXTT16=
PLAYORDER=
